<svg width="800" height="800" viewBox="0 0 800 800" xmlns="http://www.w3.org/2000/svg">
  <rect width="800" height="800" fill="#F0EEEB"/>
  <g fill="#1C1C1C">
    <circle cx="200" cy="200" r="14"/><circle cx="300" cy="200" r="14"/><circle cx="400" cy="200" r="14"/><circle cx="500" cy="200" r="14"/><circle cx="600" cy="200" r="14"/>
    <circle cx="200" cy="300" r="14"/><circle cx="300" cy="300" r="14"/><circle cx="400" cy="300" r="14"/><circle cx="500" cy="300" r="14"/><circle cx="600" cy="300" r="14"/>
    <circle cx="200" cy="400" r="14"/><circle cx="300" cy="400" r="14"/><circle cx="500" cy="400" r="14"/><circle cx="600" cy="400" r="14"/>
    <circle cx="200" cy="500" r="14"/><circle cx="300" cy="500" r="14"/><circle cx="400" cy="500" r="14"/><circle cx="500" cy="500" r="14"/><circle cx="600" cy="500" r="14"/>
    <circle cx="200" cy="600" r="14"/><circle cx="300" cy="600" r="14"/><circle cx="400" cy="600" r="14"/><circle cx="500" cy="600" r="14"/><circle cx="600" cy="600" r="14"/>
  </g>
  <rect x="384" y="384" width="32" height="32" fill="#BFB69F" transform="rotate(45 400 400)"/>
  <circle cx="400" cy="400" r="46" fill="none" stroke="#5F5F5F" stroke-width="2"/>
  <text x="80" y="100" font-family="Arial, sans-serif" font-size="22" letter-spacing="8" fill="#5F5F5F">06</text>
</svg>
