<svg width="800" height="800" viewBox="0 0 800 800" xmlns="http://www.w3.org/2000/svg">
  <rect width="800" height="800" fill="#0E0E0E"/>
  <g fill="#F0EEEB">
    <circle cx="240" cy="220" r="5"/>
    <circle cx="410" cy="180" r="3"/>
    <circle cx="560" cy="260" r="8"/>
    <circle cx="320" cy="330" r="12"/>
    <circle cx="180" cy="420" r="4"/>
    <circle cx="470" cy="390" r="6"/>
    <circle cx="620" cy="430" r="3"/>
    <circle cx="270" cy="520" r="7"/>
    <circle cx="400" cy="480" r="16"/>
    <circle cx="540" cy="560" r="5"/>
    <circle cx="350" cy="620" r="4"/>
    <circle cx="200" cy="600" r="3"/>
  </g>
  <g fill="#BFB69F">
    <circle cx="500" cy="200" r="4"/>
    <circle cx="600" cy="340" r="5"/>
    <circle cx="250" cy="280" r="3"/>
    <circle cx="440" cy="570" r="9"/>
    <circle cx="580" cy="640" r="4"/>
    <circle cx="160" cy="330" r="6"/>
    <circle cx="330" cy="420" r="3"/>
    <circle cx="640" cy="530" r="7"/>
  </g>
  <text x="80" y="100" font-family="Arial, sans-serif" font-size="22" letter-spacing="8" fill="#CAC2B6">05</text>
</svg>
